<svg aria-hidden="true" style="position: absolute; width: 0; height: 0; overflow: hidden;" version="1.1" xmlns="http://www.w3.org/2000/svg" xmlns:xlink="http://www.w3.org/1999/xlink">
<defs>
<symbol id="icon-download" viewBox="0 0 34 32">
<path fill="#ff0043" style="fill: var(--color1, #ff0043)" d="M27.125 8.456c-1.134-5.692-6.668-9.386-12.36-8.252-4.163 0.83-7.418 4.083-8.251 8.245-4.036 0.465-6.931 4.114-6.466 8.149 0.428 3.714 3.574 6.517 7.313 6.514h5.254c0.58 0 1.051-0.471 1.051-1.051s-0.47-1.051-1.051-1.051h-5.254c-2.902-0.017-5.24-2.383-5.223-5.285s2.383-5.241 5.285-5.223c0.536 0 0.986-0.403 1.044-0.935 0.534-4.612 4.705-7.918 9.317-7.385 3.878 0.448 6.936 3.507 7.385 7.385 0.088 0.542 0.558 0.939 1.107 0.935 2.902 0 5.254 2.352 5.254 5.254s-2.352 5.254-5.254 5.254h-5.254c-0.58 0-1.051 0.47-1.051 1.051s0.47 1.051 1.051 1.051h5.254c4.062-0.025 7.335-3.339 7.31-7.402-0.023-3.7-2.79-6.806-6.462-7.256z"></path>
<path fill="#ff0043" style="fill: var(--color1, #ff0043)" d="M20.534 25.268l-2.664 2.665v-13.226c0-0.58-0.47-1.051-1.051-1.051s-1.051 0.47-1.051 1.051v13.226l-2.664-2.665c-0.403-0.418-1.069-0.429-1.486-0.026s-0.429 1.068-0.026 1.486c0.009 0.009 0.017 0.017 0.026 0.026l4.457 4.458c0.097 0.097 0.213 0.174 0.34 0.227 0.259 0.109 0.55 0.109 0.809 0 0.127-0.053 0.242-0.13 0.339-0.227l4.457-4.458c0.417-0.403 0.429-1.068 0.026-1.486s-1.068-0.429-1.486-0.026c-0.009 0.008-0.017 0.017-0.026 0.026z"></path>
</symbol>
<symbol id="icon-Say-Whats-On-Your-Mind" viewBox="0 0 32 32">
<path fill="#ff0043" style="fill: var(--color1, #ff0043)" d="M12.69 3.945c-6.997 0-12.69 5.123-12.69 11.421 0 2.201 0.696 4.334 2.017 6.177-0.25 2.765-0.92 4.818-1.893 5.79-0.129 0.129-0.161 0.325-0.080 0.488 0.072 0.145 0.22 0.234 0.379 0.234 0.019 0 0.039-0.001 0.059-0.004 0.171-0.024 4.151-0.597 7.029-2.258 1.634 0.659 3.375 0.994 5.179 0.994 6.997 0 12.69-5.123 12.69-11.421s-5.693-11.421-12.69-11.421z"></path>
<path fill="#fff" style="fill: var(--color2, #fff)" d="M6.768 17.058c-0.933 0-1.692-0.759-1.692-1.692s0.759-1.692 1.692-1.692 1.692 0.759 1.692 1.692c0 0.933-0.759 1.692-1.692 1.692z"></path>
<path fill="#fff" style="fill: var(--color2, #fff)" d="M12.69 17.058c-0.933 0-1.692-0.759-1.692-1.692s0.759-1.692 1.692-1.692 1.692 0.759 1.692 1.692c0 0.933-0.759 1.692-1.692 1.692z"></path>
<path fill="#fff" style="fill: var(--color2, #fff)" d="M18.611 17.058c-0.933 0-1.692-0.759-1.692-1.692s0.759-1.692 1.692-1.692 1.692 0.759 1.692 1.692c0 0.933-0.759 1.692-1.692 1.692z"></path>
</symbol>
<symbol id="icon-Document-Share" viewBox="0 0 32 32">
<path fill="#ff0043" style="fill: var(--color1, #ff0043)" d="M19.5 8.45v19.6c0 0.42-0.33 0.75-0.75 0.75h-18c-0.42 0-0.75-0.33-0.75-0.75v-24.1c0-0.42 0.33-0.75 0.75-0.75h12l1.5 2.625 1.5 1.125 3.75 1.5z"></path>
<path fill="#d30037" style="fill: var(--color3, #d30037)" d="M19.2 7.85l-6-4.5c-0.135-0.090-0.285-0.15-0.45-0.15v4.5c0 0.414 0.336 0.75 0.75 0.75h6c0-0.24-0.105-0.465-0.3-0.6z"></path>
<path fill="#fff" style="fill: var(--color2, #fff)" d="M7.386 17.802c-0.22-0.351-0.113-0.814 0.239-1.033l3.457-2.159c0.35-0.217 0.814-0.112 1.033 0.24 0.22 0.351 0.113 0.814-0.239 1.033l-3.457 2.159c-0.347 0.217-0.812 0.115-1.033-0.24z"></path>
<path fill="#fff" style="fill: var(--color2, #fff)" d="M11.082 21.791l-3.457-2.159c-0.352-0.22-0.458-0.683-0.239-1.033 0.22-0.352 0.686-0.456 1.033-0.239l3.457 2.159c0.352 0.22 0.459 0.683 0.239 1.033-0.221 0.355-0.685 0.457-1.033 0.239z"></path>
<path fill="#fff" style="fill: var(--color2, #fff)" d="M6.75 20.45c-1.241 0-2.25-1.009-2.25-2.25s1.009-2.25 2.25-2.25c1.241 0 2.25 1.009 2.25 2.25s-1.009 2.25-2.25 2.25z"></path>
<path fill="#fff" style="fill: var(--color2, #fff)" d="M12.75 16.7c-1.241 0-2.25-1.009-2.25-2.25s1.009-2.25 2.25-2.25c1.241 0 2.25 1.009 2.25 2.25s-1.009 2.25-2.25 2.25z"></path>
<path fill="#fff" style="fill: var(--color2, #fff)" d="M12.75 24.2c-1.241 0-2.25-1.009-2.25-2.25s1.009-2.25 2.25-2.25c1.241 0 2.25 1.009 2.25 2.25s-1.009 2.25-2.25 2.25z"></path>
</symbol>
<symbol id="icon-Security-by-Default" viewBox="0 0 32 32">
<path fill="#ff0043" style="fill: var(--color1, #ff0043)" d="M21.978 6.416l-10.646-3.194c-0.1-0.030-0.206-0.030-0.306 0l-10.646 3.194c-0.225 0.067-0.38 0.275-0.38 0.51v11.71c0 4.707 7.177 8.894 11.021 10.090 0.104 0.033 0.215 0.033 0.319 0 3.839-1.197 11.016-5.384 11.016-10.090v-11.71c0-0.235-0.154-0.442-0.379-0.51z"></path>
<path fill="#fafafa" style="fill: var(--color4, #fafafa)" d="M10.114 20.233c-0.141 0-0.277-0.056-0.377-0.155l-4.258-4.258c-0.204-0.211-0.198-0.548 0.013-0.753 0.206-0.199 0.533-0.199 0.74 0l3.883 3.881 7.075-7.075c0.204-0.211 0.541-0.217 0.753-0.013s0.217 0.541 0.013 0.753c-0.004 0.004-0.009 0.009-0.013 0.013l-7.452 7.452c-0.1 0.1-0.235 0.155-0.376 0.155z"></path>
</symbol>
<symbol id="icon-mac-or-windows" viewBox="0 0 54 32">
<path fill="#ffe7ed" style="fill: var(--color5, #ffe7ed)" d="M22.933 8.387v15.767c0 0.401-0.315 0.717-0.717 0.717h-9.216c-0.272-2.551-0.029-6.522 0.616-7.883 0 0-2.953 0-4.3 0 0-2.996 1.39-6.808 2.795-9.317h10.105c0.401 0 0.717 0.315 0.717 0.717z"></path>
<path fill="#ffe7ed" style="fill: var(--color5, #ffe7ed)" d="M13 24.87h-12.284c-0.401 0-0.717-0.315-0.717-0.717v-15.767c0-0.401 0.315-0.717 0.717-0.717h11.395c-1.405 2.508-2.795 6.321-2.795 9.317 1.347 0 4.3 0 4.3 0-0.645 1.362-0.889 5.332-0.616 7.883z"></path>
<path fill="#ff0043" style="fill: var(--color1, #ff0043)" d="M13.598 27.73c-0.176 0-0.351-0.066-0.489-0.204-1.198-1.198-1.147-6.999-0.473-9.823h-3.32c-0.396 0-0.717-0.321-0.717-0.717 0-4.33 2.693-10.157 4.509-11.974 0.279-0.279 0.734-0.279 1.013 0s0.28 0.734 0 1.013c-1.353 1.354-3.785 6.301-4.063 10.244h3.557c0.245 0 0.473 0.125 0.605 0.331 0.132 0.208 0.149 0.467 0.044 0.688-0.879 1.879-0.844 8.445-0.142 9.225 0.261 0.288 0.255 0.745-0.027 1.012-0.14 0.135-0.321 0.204-0.499 0.204z"></path>
<path fill="#ff0043" style="fill: var(--color1, #ff0043)" d="M11.467 22.004c-1.365 0-3.843-0.388-6.705-1.481-0.37-0.14-0.555-0.555-0.414-0.924 0.14-0.371 0.555-0.559 0.926-0.414 2.683 1.023 5.014 1.386 6.193 1.386s3.51-0.363 6.195-1.386c0.367-0.143 0.784 0.042 0.924 0.414 0.142 0.37-0.043 0.784-0.414 0.924-2.862 1.092-5.341 1.481-6.705 1.481z"></path>
<path fill="#ff0043" style="fill: var(--color1, #ff0043)" d="M6.45 13.404c-0.396 0-0.717-0.321-0.717-0.717v-1.433c0-0.396 0.321-0.717 0.717-0.717s0.717 0.321 0.717 0.717v1.433c0 0.396-0.321 0.717-0.717 0.717z"></path>
<path fill="#ff0043" style="fill: var(--color1, #ff0043)" d="M15.050 13.404c-0.396 0-0.717-0.321-0.717-0.717v-1.433c0-0.396 0.321-0.717 0.717-0.717s0.717 0.321 0.717 0.717v1.433c0 0.396-0.321 0.717-0.717 0.717z"></path>
<path fill="#ff0043" style="fill: var(--color1, #ff0043)" d="M41.895 15.162v-7.894l-9.406 1.176v6.719h9.406z"></path>
<path fill="#ff0043" style="fill: var(--color1, #ff0043)" d="M43.239 15.162h10.75v-9.406l-10.75 1.344v8.062z"></path>
<path fill="#ff0043" style="fill: var(--color1, #ff0043)" d="M43.239 16.506v8.063l10.75 1.344v-9.406h-10.75z"></path>
<path fill="#ff0043" style="fill: var(--color1, #ff0043)" d="M41.895 16.506h-9.406v6.719l9.406 1.176v-7.895z"></path>
</symbol>
<symbol id="icon-iphone" viewBox="0 0 27 32">
<path fill="#ff0043" style="fill: var(--color1, #ff0043)" d="M15.248 6.979c-0.62 0.246-1.263 0.375-1.932 0.357-0.127-0.002-0.176-0.036-0.183-0.17-0.104-1.267 0.236-2.426 0.846-3.517 1.044-1.864 2.631-3.015 4.694-3.521 0.176-0.044 0.358-0.068 0.55-0.093 0.084-0.011 0.171-0.022 0.26-0.035 0.003 0.085 0.007 0.165 0.011 0.242 0.006 0.117 0.011 0.228 0.013 0.339 0.044 2.286-1.433 5.276-4.259 6.397zM25.942 23.575c0.033-0.097 0.065-0.192 0.098-0.284-2.498-1.243-4.021-3.157-4.211-5.988-0.188-2.828 1.104-4.917 3.372-6.499-0.016-0.024-0.038-0.057-0.060-0.088l-0.009-0.012c-0.9-1.262-2.091-2.129-3.555-2.619-1.033-0.346-2.094-0.487-3.182-0.399-0.727 0.058-1.424 0.262-2.109 0.512-0.668 0.248-1.335 0.501-2.001 0.756-0.602 0.23-1.2 0.23-1.801 0.004-0.652-0.244-1.304-0.491-1.954-0.74-1.235-0.476-2.494-0.6-3.789-0.295-2.153 0.504-3.789 1.726-4.949 3.592-0.924 1.484-1.326 3.132-1.428 4.861-0.087 1.443 0.055 2.866 0.352 4.277 0.689 3.283 2.116 6.213 4.241 8.805 0.449 0.546 0.929 1.061 1.5 1.484 0.46 0.34 0.956 0.604 1.524 0.71 0.65 0.123 1.288 0.039 1.903-0.167 0.37-0.125 0.732-0.273 1.093-0.421 0.157-0.064 0.314-0.129 0.472-0.191 1.444-0.571 2.905-0.641 4.373-0.108 0.293 0.106 0.581 0.229 0.868 0.352 0.156 0.067 0.313 0.134 0.47 0.198 0.616 0.251 1.255 0.372 1.921 0.35 0.886-0.031 1.652-0.372 2.318-0.935 0.337-0.284 0.663-0.589 0.943-0.927 1.451-1.735 2.646-3.628 3.434-5.761 0.059-0.157 0.112-0.315 0.165-0.469z"></path>
</symbol>
<symbol id="icon-android" viewBox="0 0 32 32">
<path fill="#ff0043" style="fill: var(--color1, #ff0043)" d="M1.633 11.723c-0.882 0-1.597 0.715-1.597 1.597v7.452c0 0.882 0.715 1.597 1.597 1.597s1.597-0.715 1.597-1.597v-7.452c0-0.882-0.715-1.597-1.597-1.597z"></path>
<path fill="#ff0043" style="fill: var(--color1, #ff0043)" d="M19.731 11.723c-0.882 0-1.597 0.715-1.597 1.597v7.452c0 0.882 0.715 1.597 1.597 1.597s1.597-0.715 1.597-1.597v-7.452c0-0.882-0.715-1.597-1.597-1.597z"></path>
<path fill="#ff0043" style="fill: var(--color1, #ff0043)" d="M16.537 11.723h-11.71c-0.294 0-0.532 0.238-0.532 0.532v8.517c-0 1.265 0.89 2.355 2.129 2.608v3.779c0 0.882 0.715 1.597 1.597 1.597s1.597-0.715 1.597-1.597v-3.726h2.129v3.726c0 0.882 0.715 1.597 1.597 1.597s1.597-0.715 1.597-1.597v-3.779c1.239-0.253 2.129-1.343 2.129-2.608v-8.517c-0-0.294-0.238-0.532-0.532-0.532z"></path>
<path fill="#ff0043" style="fill: var(--color1, #ff0043)" d="M14.552 5.412l1.298-1.297c0.211-0.204 0.217-0.541 0.013-0.753s-0.541-0.217-0.753-0.013c-0.004 0.004-0.009 0.009-0.013 0.013l-1.512 1.512c-1.852-0.804-3.954-0.804-5.805 0l-1.512-1.513c-0.211-0.204-0.548-0.198-0.753 0.013-0.199 0.206-0.199 0.533 0 0.74l1.297 1.298c-1.581 1.046-2.527 2.819-2.518 4.714 0 0.294 0.238 0.532 0.532 0.532h11.71c0.294 0 0.532-0.238 0.532-0.532 0.010-1.895-0.937-3.668-2.518-4.714z"></path>
<path fill="#fafafa" style="fill: var(--color4, #fafafa)" d="M8.553 7.997c0 0.294-0.238 0.532-0.532 0.532s-0.532-0.238-0.532-0.532c0-0.294 0.238-0.532 0.532-0.532s0.532 0.238 0.532 0.532z"></path>
<path fill="#fafafa" style="fill: var(--color4, #fafafa)" d="M13.876 7.997c0 0.294-0.238 0.532-0.532 0.532s-0.532-0.238-0.532-0.532c0-0.294 0.238-0.532 0.532-0.532s0.532 0.238 0.532 0.532z"></path>
</symbol>
</defs>
</svg>
